<?xml version="1.0" encoding="utf-8"?>
<!-- Generator: Adobe Illustrator 21.0.0, SVG Export Plug-In . SVG Version: 6.00 Build 0)  -->
<svg version="1.1" id="Layer_2" xmlns="http://www.w3.org/2000/svg" xmlns:xlink="http://www.w3.org/1999/xlink" x="0px" y="0px"
	 viewBox="0 0 1000 1000" style="enable-background:new 0 0 1000 1000;" xml:space="preserve">
<style type="text/css">
	.st0{fill:url(#SVGID_1_);}
	.st1{fill:url(#SVGID_2_);}
</style>
<linearGradient id="SVGID_1_" gradientUnits="userSpaceOnUse" x1="324.3985" y1="414.1641" x2="705.3859" y2="795.1517" gradientTransform="matrix(1 0 0 -1 0 1001)">
	<stop  offset="0" style="stop-color:#63E2FF"/>
	<stop  offset="1" style="stop-color:#B066FE"/>
</linearGradient>
<path class="st0" d="M393.9,306.5v-34.2c0-2.8-2.3-5.1-5.1-5.1h-34.3c-2.8,0-5.1,2.3-5.1,5.1v34.2c0,2.8,2.3,5.1,5.1,5.1h34.2
	C391.6,311.6,393.9,309.4,393.9,306.5z M359.7,277.4h24v24h-24V277.4z M599.9,391.4c0-54.9-44.7-99.6-99.6-99.6
	s-99.6,44.7-99.6,99.6s44.7,99.6,99.6,99.6C555.2,491,599.9,446.3,599.9,391.4z M589.7,391.4c0,49.3-40,89.3-89.3,89.3
	s-89.3-40-89.3-89.3s40-89.3,89.3-89.3C549.6,302,589.7,342.2,589.7,391.4z M572.6,391.4c0-39.8-32.4-72.2-72.2-72.2
	s-72.2,32.4-72.2,72.2s32.4,72.2,72.2,72.2S572.6,431.2,572.6,391.4z M562.3,391.4c0,34.2-27.8,61.9-61.9,61.9
	c-34.2,0-61.9-27.8-61.9-61.9s27.8-61.9,61.9-61.9C534.5,329.4,562.3,357.2,562.3,391.4z M555.4,391.4c0-30.4-24.7-55.1-55.1-55.1
	c-2.8,0-5.1,2.3-5.1,5.1s2.3,5.1,5.1,5.1c24.7,0,44.8,20.1,44.8,44.8c0,2.8,2.3,5.1,5.1,5.1S555.4,394.2,555.4,391.4z M461.7,260.6
	v-27.4c0-13.8-11.2-25-25-25s-25,11.2-25,25v27.4c0,13.8,11.2,25,25,25C450.4,285.6,461.7,274.5,461.7,260.6z M451.4,233.3v27.3
	c0,8.1-6.6,14.7-14.7,14.7s-14.7-6.6-14.7-14.7v-27.4c0-8.1,6.6-14.7,14.7-14.7S451.4,225.2,451.4,233.3z M394.6,348.9
	c0-12.3-10-22.2-22.2-22.2c-12.3,0-22.2,10-22.2,22.2c0,12.3,10,22.2,22.2,22.2C384.6,371.2,394.6,361.3,394.6,348.9z M384.3,348.9
	c0,6.6-5.4,12-12,12s-12-5.4-12-12s5.4-12,12-12C378.9,337,384.3,342.4,384.3,348.9z M671.1,173.7H430.4
	c-58.8,0-106.6,47.8-106.6,106.6v250.4c0,2.8,2.3,5.1,5.1,5.1h91.4v144.8c0,2.8,2.3,5.1,5.1,5.1h149.2c2.8,0,5.1-2.3,5.1-5.1V535.8
	h91.4c2.8,0,5.1-2.3,5.1-5.1V178.8C676.3,176,674,173.7,671.1,173.7z M569.5,675.4h-139V511.8h139V675.4z M666,525.5h-86.2v-13.7
	h14.4c2.8,0,5.1-2.3,5.1-5.1s-2.3-5.1-5.1-5.1h-19.5H425.4h-19.5c-2.8,0-5.1,2.3-5.1,5.1s2.3,5.1,5.1,5.1h14.4v13.7h-86.2V280.3
	c0-53.1,43.2-96.3,96.3-96.3H666V525.5z M447.6,662h104.8c2.8,0,5.1-2.3,5.1-5.1V538.6c0-2.8-2.3-5.1-5.1-5.1H447.6
	c-2.8,0-5.1,2.3-5.1,5.1v118.3C442.5,659.7,444.8,662,447.6,662z M452.7,543.8h94.6v108h-94.6L452.7,543.8L452.7,543.8z"/>
<linearGradient id="SVGID_2_" gradientUnits="userSpaceOnUse" x1="324.425" y1="886.3608" x2="675.125" y2="535.6608" gradientTransform="matrix(1 0 0 1 0 99)">
	<stop  offset="0" style="stop-color:#63E2FF"/>
	<stop  offset="1" style="stop-color:#B066FE"/>
</linearGradient>
<path class="st1" d="M190.3,793.8h-13.7v38.1H171v-38.1h-13.7v-4.6h33V793.8z M201.2,803.9c2.4-2.9,5.5-4.4,9.4-4.4
	c6.7,0,10.1,3.8,10.1,11.3v20.9h-5.4v-21c0-2.3-0.5-4-1.6-5.1s-2.6-1.6-4.8-1.6c-1.8,0-3.3,0.5-4.6,1.4c-1.3,0.9-2.4,2.2-3.1,3.7
	v22.6h-5.4v-45h5.4L201.2,803.9L201.2,803.9z M241.9,832.4c-4.3,0-7.8-1.4-10.5-4.2s-4-6.6-4-11.3v-1c0-3.1,0.6-6,1.8-8.4
	c1.2-2.4,2.9-4.4,5-5.8c2.2-1.4,4.5-2.1,7-2.1c4.1,0,7.3,1.4,9.6,4.1c2.3,2.7,3.4,6.6,3.4,11.7v2.3h-21.5c0.1,3.1,1,5.6,2.7,7.6
	c1.7,1.9,4,2.9,6.7,2.9c1.9,0,3.5-0.4,4.9-1.2c1.3-0.8,2.5-1.8,3.5-3.1l3.3,2.6C251.2,830.4,247.3,832.4,241.9,832.4z M241.3,804
	c-2.2,0-4,0.8-5.5,2.4s-2.4,3.8-2.8,6.7h15.9v-0.4c-0.2-2.8-0.9-4.9-2.2-6.4C245.3,804.8,243.5,804,241.3,804z M275.5,791.8
	c0-0.9,0.3-1.6,0.8-2.2c0.5-0.6,1.3-0.9,2.4-0.9s1.9,0.3,2.4,0.9s0.8,1.3,0.8,2.2s-0.3,1.6-0.8,2.2s-1.3,0.9-2.4,0.9
	s-1.9-0.3-2.4-0.9C275.7,793.4,275.5,792.7,275.5,791.8z M281.3,831.9h-5.4v-31.7h5.4V831.9z M295.1,800.2l0.1,3.5
	c2.3-2.7,5.5-4.1,9.4-4.1c4.4,0,7.5,1.7,9.1,5.1c1.1-1.5,2.4-2.8,4.1-3.7s3.7-1.4,6-1.4c7,0,10.5,3.7,10.6,11v21.2H329V811
	c0-2.3-0.5-4-1.6-5.1c-1-1.1-2.8-1.7-5.2-1.7c-2,0-3.7,0.6-5,1.8s-2.1,2.8-2.3,4.8v21h-5.4V811c0-4.6-2.3-6.9-6.8-6.9
	c-3.6,0-6,1.5-7.3,4.5v23H290v-31.7h5.1L295.1,800.2L295.1,800.2z M362.1,831.9c-0.3-0.6-0.6-1.7-0.8-3.3c-2.5,2.6-5.5,3.9-9,3.9
	c-3.1,0-5.7-0.9-7.7-2.7s-3-4-3-6.7c0-3.3,1.3-5.9,3.8-7.7s6-2.7,10.6-2.7h5.3v-2.5c0-1.9-0.6-3.4-1.7-4.5s-2.8-1.7-5-1.7
	c-1.9,0-3.6,0.5-4.9,1.5s-2,2.2-2,3.5h-5.4c0-1.6,0.6-3.1,1.7-4.6s2.6-2.6,4.6-3.5c1.9-0.9,4-1.3,6.3-1.3c3.7,0,6.5,0.9,8.6,2.7
	s3.1,4.3,3.2,7.5v14.6c0,2.9,0.4,5.2,1.1,6.9v0.5L362.1,831.9L362.1,831.9z M353.1,827.8c1.7,0,3.3-0.4,4.8-1.3
	c1.5-0.9,2.6-2,3.3-3.4v-6.5H357c-6.6,0-10,1.9-10,5.8c0,1.7,0.6,3,1.7,4C349.9,827.3,351.4,827.8,353.1,827.8z M373.9,815.8
	c0-4.9,1.1-8.9,3.4-11.8c2.3-2.9,5.3-4.4,9.1-4.4c3.9,0,6.9,1.4,9.1,4.1l0.3-3.5h5v30.9c0,4.1-1.2,7.3-3.6,9.7s-5.7,3.5-9.8,3.5
	c-2.3,0-4.5-0.5-6.7-1.5s-3.9-2.3-5-4l2.8-3.3c2.3,2.9,5.2,4.3,8.5,4.3c2.6,0,4.7-0.7,6.2-2.2s2.2-3.6,2.2-6.3v-2.7
	c-2.2,2.5-5.1,3.8-8.9,3.8c-3.7,0-6.7-1.5-9-4.5C375.1,824.9,373.9,820.9,373.9,815.8z M379.4,816.4c0,3.6,0.7,6.4,2.2,8.4
	s3.5,3.1,6.2,3.1c3.4,0,5.9-1.6,7.5-4.7v-14.5c-1.7-3-4.2-4.5-7.5-4.5c-2.6,0-4.7,1-6.2,3.1C380.1,809.3,379.4,812.4,379.4,816.4z
	 M422,832.4c-4.3,0-7.8-1.4-10.5-4.2s-4-6.6-4-11.3v-1c0-3.1,0.6-6,1.8-8.4s2.9-4.4,5-5.8c2.2-1.4,4.5-2.1,7-2.1
	c4.1,0,7.3,1.4,9.6,4.1s3.4,6.6,3.4,11.7v2.3h-21.5c0.1,3.1,1,5.6,2.7,7.6c1.7,1.9,4,2.9,6.7,2.9c1.9,0,3.5-0.4,4.9-1.2
	c1.3-0.8,2.5-1.8,3.5-3.1l3.3,2.6C431.3,830.4,427.3,832.4,422,832.4z M421.4,804c-2.2,0-4,0.8-5.5,2.4s-2.4,3.8-2.8,6.7H429v-0.4
	c-0.2-2.8-0.9-4.9-2.2-6.4C425.4,804.8,423.6,804,421.4,804z M483.6,824.4l6.1-24.2h5.4l-9.2,31.7h-4.4l-7.7-24l-7.5,24h-4.4
	l-9.2-31.7h5.4l6.2,23.7l7.4-23.7h4.4L483.6,824.4z M520.2,831.9c-0.3-0.6-0.6-1.7-0.8-3.3c-2.5,2.6-5.5,3.9-9,3.9
	c-3.1,0-5.7-0.9-7.7-2.7s-3-4-3-6.7c0-3.3,1.3-5.9,3.8-7.7s6-2.7,10.6-2.7h5.3v-2.5c0-1.9-0.6-3.4-1.7-4.5c-1.1-1.1-2.8-1.7-5-1.7
	c-1.9,0-3.6,0.5-4.9,1.5s-2,2.2-2,3.5h-5.4c0-1.6,0.6-3.1,1.7-4.6c1.1-1.5,2.6-2.6,4.6-3.5s4-1.3,6.3-1.3c3.7,0,6.5,0.9,8.6,2.7
	s3.1,4.3,3.2,7.5v14.6c0,2.9,0.4,5.2,1.1,6.9v0.5L520.2,831.9L520.2,831.9z M511.2,827.8c1.7,0,3.3-0.4,4.8-1.3
	c1.5-0.9,2.6-2,3.3-3.4v-6.5h-4.2c-6.6,0-10,1.9-10,5.8c0,1.7,0.6,3,1.7,4C507.9,827.3,509.4,827.8,511.2,827.8z M551.7,823.4
	c0-1.5-0.6-2.6-1.7-3.4s-3-1.5-5.8-2.1s-4.9-1.3-6.5-2.1s-2.8-1.8-3.6-2.9c-0.8-1.1-1.2-2.5-1.2-4c0-2.6,1.1-4.8,3.3-6.6
	s5-2.7,8.4-2.7c3.6,0,6.5,0.9,8.7,2.8c2.2,1.9,3.4,4.2,3.4,7.1h-5.4c0-1.5-0.6-2.8-1.9-3.8s-2.8-1.6-4.8-1.6s-3.5,0.4-4.6,1.3
	c-1.1,0.9-1.7,2-1.7,3.4c0,1.3,0.5,2.3,1.6,3c1,0.7,2.9,1.3,5.6,1.9c2.7,0.6,4.9,1.3,6.6,2.2c1.7,0.8,2.9,1.9,3.7,3s1.2,2.6,1.2,4.3
	c0,2.8-1.1,5.1-3.4,6.8c-2.3,1.7-5.2,2.6-8.8,2.6c-2.5,0-4.8-0.4-6.7-1.3c-2-0.9-3.5-2.2-4.6-3.8s-1.7-3.4-1.7-5.2h5.4
	c0.1,1.8,0.8,3.3,2.2,4.3s3.1,1.6,5.4,1.6c2.1,0,3.7-0.4,4.9-1.2C550.9,826.3,551.7,824.9,551.7,823.4z M584.2,800.2l0.2,4
	c2.4-3,5.6-4.6,9.5-4.6c6.7,0,10.1,3.8,10.1,11.3v20.9h-5.4v-21c0-2.3-0.5-4-1.6-5.1s-2.6-1.6-4.8-1.6c-1.8,0-3.3,0.5-4.6,1.4
	s-2.4,2.2-3.1,3.7v22.6H579v-31.7L584.2,800.2L584.2,800.2z M610.7,815.7c0-3.1,0.6-5.9,1.8-8.4s2.9-4.4,5.1-5.7
	c2.2-1.3,4.7-2,7.5-2c4.3,0,7.8,1.5,10.5,4.5s4,7,4,11.9v0.4c0,3.1-0.6,5.9-1.8,8.3c-1.2,2.4-2.9,4.4-5.1,5.7
	c-2.2,1.3-4.7,2.1-7.6,2.1c-4.3,0-7.8-1.5-10.4-4.5s-4-6.9-4-11.9V815.7z M616.1,816.4c0,3.5,0.8,6.3,2.4,8.5
	c1.6,2.2,3.8,3.2,6.5,3.2c2.8,0,4.9-1.1,6.6-3.2c1.6-2.2,2.4-5.2,2.4-9.1c0-3.5-0.8-6.3-2.5-8.5s-3.8-3.2-6.6-3.2
	c-2.7,0-4.8,1.1-6.5,3.2C616.7,809.4,616.1,812.4,616.1,816.4z M653.7,792.4v7.7h5.9v4.2h-5.9V824c0,1.3,0.3,2.2,0.8,2.9
	s1.4,1,2.7,1c0.6,0,1.5-0.1,2.6-0.4v4.4c-1.4,0.4-2.8,0.6-4.2,0.6c-2.4,0-4.2-0.7-5.5-2.2s-1.8-3.5-1.8-6.2v-19.7h-5.8v-4.2h5.8
	v-7.7L653.7,792.4L653.7,792.4z M683.5,831.9v-27.5h-5v-4.2h5v-3.3c0-3.4,0.9-6,2.7-7.9s4.4-2.8,7.7-2.8c1.2,0,2.5,0.2,3.7,0.5
	l-0.3,4.4c-0.9-0.2-1.9-0.3-2.9-0.3c-1.8,0-3.1,0.5-4.1,1.5s-1.4,2.5-1.4,4.4v3.4h6.8v4.2h-6.8v27.5L683.5,831.9L683.5,831.9z
	 M700.2,815.7c0-3.1,0.6-5.9,1.8-8.4s2.9-4.4,5.1-5.7c2.2-1.3,4.7-2,7.5-2c4.3,0,7.8,1.5,10.5,4.5s4,7,4,11.9v0.4
	c0,3.1-0.6,5.9-1.8,8.3c-1.2,2.4-2.9,4.4-5.1,5.7c-2.2,1.3-4.7,2.1-7.6,2.1c-4.3,0-7.8-1.5-10.4-4.5s-4-6.9-4-11.9V815.7z
	 M705.6,816.4c0,3.5,0.8,6.3,2.4,8.5c1.6,2.2,3.8,3.2,6.5,3.2c2.8,0,4.9-1.1,6.6-3.2c1.6-2.2,2.4-5.2,2.4-9.1c0-3.5-0.8-6.3-2.5-8.5
	s-3.8-3.2-6.6-3.2c-2.7,0-4.8,1.1-6.5,3.2C706.2,809.4,705.6,812.4,705.6,816.4z M755.4,828.8c-2.1,2.5-5.2,3.7-9.3,3.7
	c-3.4,0-6-1-7.7-2.9s-2.7-4.9-2.7-8.7v-20.6h5.4v20.5c0,4.8,2,7.2,5.9,7.2c4.1,0,6.9-1.5,8.3-4.6v-23.1h5.4V832h-5.2L755.4,828.8z
	 M774.1,800.2l0.2,4c2.4-3,5.6-4.6,9.5-4.6c6.7,0,10.1,3.8,10.1,11.3v20.9h-5.4v-21c0-2.3-0.5-4-1.6-5.1s-2.6-1.6-4.8-1.6
	c-1.8,0-3.3,0.5-4.6,1.4s-2.4,2.2-3.1,3.7v22.6H769v-31.7L774.1,800.2L774.1,800.2z M800.7,815.8c0-4.9,1.2-8.8,3.5-11.7
	c2.3-3,5.3-4.4,9.1-4.4c3.7,0,6.7,1.3,8.8,3.8V787h5.4v45h-5l-0.3-3.4c-2.2,2.7-5.2,4-9.1,4c-3.7,0-6.7-1.5-9-4.5s-3.5-6.9-3.5-11.8
	L800.7,815.8L800.7,815.8z M806.1,816.4c0,3.6,0.7,6.4,2.2,8.4s3.5,3,6.2,3c3.4,0,5.9-1.5,7.5-4.6v-14.6c-1.6-3-4.1-4.5-7.5-4.5
	c-2.7,0-4.7,1-6.2,3.1C806.9,809.3,806.1,812.4,806.1,816.4z M836,828.9c0-0.9,0.3-1.7,0.8-2.3s1.4-0.9,2.5-0.9s2,0.3,2.5,0.9
	c0.5,0.6,0.9,1.4,0.9,2.3c0,0.9-0.3,1.7-0.9,2.3s-1.4,0.9-2.5,0.9s-1.9-0.3-2.5-0.9C836.2,830.6,836,829.9,836,828.9z"/>
</svg>
