<?xml version="1.0" encoding="utf-8"?>
<!-- Generator: Adobe Illustrator 21.0.0, SVG Export Plug-In . SVG Version: 6.00 Build 0)  -->
<svg version="1.1" id="Layer_2" xmlns="http://www.w3.org/2000/svg" xmlns:xlink="http://www.w3.org/1999/xlink" x="0px" y="0px"
	 viewBox="0 0 1000 1000" style="enable-background:new 0 0 1000 1000;" xml:space="preserve">
<style type="text/css">
	.st0{fill:url(#SVGID_1_);}
	.st1{fill:url(#SVGID_2_);}
</style>
<linearGradient id="SVGID_1_" gradientUnits="userSpaceOnUse" x1="243.4332" y1="671.14" x2="800.04" y2="114.5332">
	<stop  offset="0" style="stop-color:#63E2FF"/>
	<stop  offset="1" style="stop-color:#B066FE"/>
</linearGradient>
<path class="st0" d="M345,261.6v-50c0-4.1-3.4-7.5-7.5-7.5h-50c-4.1,0-7.5,3.4-7.5,7.5v50c0,4.1,3.4,7.5,7.5,7.5h50
	C341.6,269.1,345,265.8,345,261.6z M295,219.1h35v35h-35V219.1z M646,385.6c0-80.2-65.3-145.5-145.5-145.5S355,305.4,355,385.6
	s65.3,145.5,145.5,145.5S646,465.9,646,385.6z M631,385.6c0,72-58.5,130.5-130.5,130.5S370,457.6,370,385.6s58.5-130.5,130.5-130.5
	S631,313.7,631,385.6z M606,385.6c0-58.2-47.3-105.5-105.5-105.5S395,327.5,395,385.6s47.3,105.5,105.5,105.5S606,443.8,606,385.6z
	 M591,385.6c0,49.9-40.6,90.5-90.5,90.5S410,435.5,410,385.6s40.6-90.5,90.5-90.5S591,335.7,591,385.6z M581,385.6
	c0-44.4-36.1-80.5-80.5-80.5c-4.1,0-7.5,3.4-7.5,7.5s3.4,7.5,7.5,7.5c36.1,0,65.5,29.4,65.5,65.5c0,4.1,3.4,7.5,7.5,7.5
	S581,389.8,581,385.6z M444,194.6v-40c0-20.1-16.4-36.5-36.5-36.5S371,134.5,371,154.6v40c0,20.1,16.4,36.5,36.5,36.5
	S444,214.8,444,194.6z M429,154.6v40c0,11.9-9.6,21.5-21.5,21.5s-21.5-9.6-21.5-21.5v-40c0-11.9,9.6-21.5,21.5-21.5
	S429,142.8,429,154.6z M346,323.6c0-17.9-14.6-32.5-32.5-32.5S281,305.7,281,323.6s14.6,32.5,32.5,32.5S346,341.6,346,323.6z
	 M331,323.6c0,9.6-7.9,17.5-17.5,17.5s-17.5-7.9-17.5-17.5s7.9-17.5,17.5-17.5S331,314,331,323.6z M750,67.6H398.3
	c-85.9,0-155.8,69.9-155.8,155.8v365.8c0,4.1,3.4,7.5,7.5,7.5h133.5v211.5c0,4.1,3.4,7.5,7.5,7.5h218c4.1,0,7.5-3.4,7.5-7.5V596.6
	H750c4.1,0,7.5-3.4,7.5-7.5v-514C757.5,71,754.1,67.6,750,67.6z M601.5,800.6h-203v-239h203V800.6z M742.5,581.6h-126v-20h21
	c4.1,0,7.5-3.4,7.5-7.5s-3.4-7.5-7.5-7.5H609H391h-28.5c-4.1,0-7.5,3.4-7.5,7.5s3.4,7.5,7.5,7.5h21v20h-126V223.3
	c0-77.6,63.1-140.8,140.8-140.8h344.3V581.6z M423.4,781h153.1c4.1,0,7.5-3.4,7.5-7.5V600.8c0-4.1-3.4-7.5-7.5-7.5H423.4
	c-4.1,0-7.5,3.4-7.5,7.5v172.8C415.9,777.7,419.3,781,423.4,781z M430.9,608.3h138.1V766H430.9V608.3z"/>
<linearGradient id="SVGID_2_" gradientUnits="userSpaceOnUse" x1="324.45" y1="-73.35" x2="675.15" y2="277.35" gradientTransform="matrix(1 0 0 -1 0 1000)">
	<stop  offset="0" style="stop-color:#63E2FF"/>
	<stop  offset="1" style="stop-color:#B066FE"/>
</linearGradient>
<path class="st1" d="M190.3,881.8h-13.7v38.1H171v-38.1h-13.7v-4.6h33V881.8z M201.2,892c2.4-2.9,5.5-4.4,9.4-4.4
	c6.7,0,10.1,3.8,10.1,11.3v20.9h-5.4v-21c0-2.3-0.5-4-1.6-5.1s-2.6-1.6-4.8-1.6c-1.8,0-3.3,0.5-4.6,1.4s-2.4,2.2-3.1,3.7v22.6h-5.4
	v-45h5.4L201.2,892L201.2,892z M241.9,920.5c-4.3,0-7.8-1.4-10.5-4.2s-4-6.6-4-11.3v-1c0-3.1,0.6-6,1.8-8.4s2.9-4.4,5-5.8
	c2.2-1.4,4.5-2.1,7-2.1c4.1,0,7.3,1.4,9.6,4.1s3.4,6.6,3.4,11.7v2.3h-21.5c0.1,3.1,1,5.6,2.7,7.6c1.7,1.9,4,2.9,6.7,2.9
	c1.9,0,3.5-0.4,4.9-1.2c1.3-0.8,2.5-1.8,3.5-3.1l3.3,2.6C251.2,918.4,247.3,920.5,241.9,920.5z M241.3,892.1c-2.2,0-4,0.8-5.5,2.4
	c-1.5,1.6-2.4,3.8-2.8,6.7h15.9v-0.4c-0.2-2.8-0.9-4.9-2.2-6.4C245.3,892.8,243.5,892.1,241.3,892.1z M275.5,879.8
	c0-0.9,0.3-1.6,0.8-2.2c0.5-0.6,1.3-0.9,2.4-0.9s1.9,0.3,2.4,0.9c0.5,0.6,0.8,1.3,0.8,2.2s-0.3,1.6-0.8,2.2
	c-0.5,0.6-1.3,0.9-2.4,0.9s-1.9-0.3-2.4-0.9C275.7,881.4,275.5,880.7,275.5,879.8z M281.3,919.9h-5.4v-31.7h5.4V919.9z M295.1,888.2
	l0.1,3.5c2.3-2.7,5.5-4.1,9.4-4.1c4.4,0,7.5,1.7,9.1,5.1c1.1-1.5,2.4-2.8,4.1-3.7s3.7-1.4,6-1.4c7,0,10.5,3.7,10.6,11v21.2H329V899
	c0-2.3-0.5-4-1.6-5.1c-1-1.1-2.8-1.7-5.2-1.7c-2,0-3.7,0.6-5,1.8s-2.1,2.8-2.3,4.8v21h-5.4V899c0-4.6-2.3-6.9-6.8-6.9
	c-3.6,0-6,1.5-7.3,4.5v23.1H290V888h5.1V888.2z M362.1,919.9c-0.3-0.6-0.6-1.7-0.8-3.3c-2.5,2.6-5.5,3.9-9,3.9
	c-3.1,0-5.7-0.9-7.7-2.7s-3-4-3-6.7c0-3.3,1.3-5.9,3.8-7.7s6-2.7,10.6-2.7h5.3v-2.5c0-1.9-0.6-3.4-1.7-4.5s-2.8-1.7-5-1.7
	c-1.9,0-3.6,0.5-4.9,1.5s-2,2.2-2,3.5h-5.4c0-1.6,0.6-3.1,1.7-4.6s2.6-2.6,4.6-3.5c1.9-0.9,4-1.3,6.3-1.3c3.7,0,6.5,0.9,8.6,2.7
	s3.1,4.3,3.2,7.5v14.6c0,2.9,0.4,5.2,1.1,6.9v0.5L362.1,919.9L362.1,919.9z M353.1,915.8c1.7,0,3.3-0.4,4.8-1.3s2.6-2,3.3-3.4v-6.5
	H357c-6.6,0-10,1.9-10,5.8c0,1.7,0.6,3,1.7,4C349.9,915.3,351.4,915.8,353.1,915.8z M373.9,903.8c0-4.9,1.1-8.9,3.4-11.8
	s5.3-4.4,9.1-4.4c3.9,0,6.9,1.4,9.1,4.1l0.3-3.5h5v30.9c0,4.1-1.2,7.3-3.6,9.7s-5.7,3.5-9.8,3.5c-2.3,0-4.5-0.5-6.7-1.5
	s-3.9-2.3-5-4l2.8-3.3c2.3,2.9,5.2,4.3,8.5,4.3c2.6,0,4.7-0.7,6.2-2.2s2.2-3.6,2.2-6.3v-2.7c-2.2,2.5-5.1,3.8-8.9,3.8
	c-3.7,0-6.7-1.5-9-4.5C375.1,913,373.9,908.9,373.9,903.8z M379.4,904.4c0,3.6,0.7,6.4,2.2,8.4s3.5,3.1,6.2,3.1
	c3.4,0,5.9-1.6,7.5-4.7v-14.5c-1.7-3-4.2-4.5-7.5-4.5c-2.6,0-4.7,1-6.2,3.1C380.1,897.3,379.4,900.4,379.4,904.4z M422,920.5
	c-4.3,0-7.8-1.4-10.5-4.2s-4-6.6-4-11.3v-1c0-3.1,0.6-6,1.8-8.4s2.9-4.4,5-5.8c2.2-1.4,4.5-2.1,7-2.1c4.1,0,7.3,1.4,9.6,4.1
	s3.4,6.6,3.4,11.7v2.3h-21.5c0.1,3.1,1,5.6,2.7,7.6c1.7,1.9,4,2.9,6.7,2.9c1.9,0,3.5-0.4,4.9-1.2c1.3-0.8,2.5-1.8,3.5-3.1l3.3,2.6
	C431.3,918.4,427.3,920.5,422,920.5z M421.4,892.1c-2.2,0-4,0.8-5.5,2.4c-1.5,1.6-2.4,3.8-2.8,6.7H429v-0.4
	c-0.2-2.8-0.9-4.9-2.2-6.4C425.4,892.8,423.6,892.1,421.4,892.1z M483.6,912.4l6.1-24.2h5.4l-9.2,31.7h-4.4l-7.7-24l-7.5,24h-4.4
	l-9.2-31.7h5.4l6.2,23.7l7.4-23.7h4.4L483.6,912.4z M520.2,919.9c-0.3-0.6-0.6-1.7-0.8-3.3c-2.5,2.6-5.5,3.9-9,3.9
	c-3.1,0-5.7-0.9-7.7-2.7s-3-4-3-6.7c0-3.3,1.3-5.9,3.8-7.7s6-2.7,10.6-2.7h5.3v-2.5c0-1.9-0.6-3.4-1.7-4.5c-1.1-1.1-2.8-1.7-5-1.7
	c-1.9,0-3.6,0.5-4.9,1.5s-2,2.2-2,3.5h-5.4c0-1.6,0.6-3.1,1.7-4.6s2.6-2.6,4.6-3.5s4-1.3,6.3-1.3c3.7,0,6.5,0.9,8.6,2.7
	s3.1,4.3,3.2,7.5v14.6c0,2.9,0.4,5.2,1.1,6.9v0.5L520.2,919.9L520.2,919.9z M511.2,915.8c1.7,0,3.3-0.4,4.8-1.3s2.6-2,3.3-3.4v-6.5
	h-4.2c-6.6,0-10,1.9-10,5.8c0,1.7,0.6,3,1.7,4C507.9,915.3,509.4,915.8,511.2,915.8z M551.7,911.5c0-1.5-0.6-2.6-1.7-3.4
	s-3-1.5-5.8-2.1s-4.9-1.3-6.5-2.1s-2.8-1.8-3.6-2.9s-1.2-2.5-1.2-4c0-2.6,1.1-4.8,3.3-6.6s5-2.7,8.4-2.7c3.6,0,6.5,0.9,8.7,2.8
	s3.4,4.2,3.4,7.1h-5.4c0-1.5-0.6-2.8-1.9-3.8s-2.8-1.6-4.8-1.6s-3.5,0.4-4.6,1.3s-1.7,2-1.7,3.4c0,1.3,0.5,2.3,1.6,3
	c1,0.7,2.9,1.3,5.6,1.9s4.9,1.3,6.6,2.2c1.7,0.8,2.9,1.9,3.7,3s1.2,2.6,1.2,4.3c0,2.8-1.1,5.1-3.4,6.8c-2.3,1.7-5.2,2.6-8.8,2.6
	c-2.5,0-4.8-0.4-6.7-1.3c-2-0.9-3.5-2.2-4.6-3.8s-1.7-3.4-1.7-5.2h5.4c0.1,1.8,0.8,3.3,2.2,4.3s3.1,1.6,5.4,1.6
	c2.1,0,3.7-0.4,4.9-1.2S551.7,912.9,551.7,911.5z M584.2,888.2l0.2,4c2.4-3,5.6-4.6,9.5-4.6c6.7,0,10.1,3.8,10.1,11.3v20.9h-5.4v-21
	c0-2.3-0.5-4-1.6-5.1s-2.6-1.6-4.8-1.6c-1.8,0-3.3,0.5-4.6,1.4s-2.4,2.2-3.1,3.7v22.6H579v-31.7L584.2,888.2L584.2,888.2z
	 M610.7,903.7c0-3.1,0.6-5.9,1.8-8.4s2.9-4.4,5.1-5.7s4.7-2,7.5-2c4.3,0,7.8,1.5,10.5,4.5s4,7,4,11.9v0.4c0,3.1-0.6,5.9-1.8,8.3
	s-2.9,4.4-5.1,5.7s-4.7,2.1-7.6,2.1c-4.3,0-7.8-1.5-10.4-4.5s-4-6.9-4-11.9V903.7z M616.1,904.4c0,3.5,0.8,6.3,2.4,8.5
	s3.8,3.2,6.5,3.2c2.8,0,4.9-1.1,6.6-3.2c1.6-2.2,2.4-5.2,2.4-9.1c0-3.5-0.8-6.3-2.5-8.5s-3.8-3.2-6.6-3.2c-2.7,0-4.8,1.1-6.5,3.2
	S616.1,900.4,616.1,904.4z M653.7,880.5v7.7h5.9v4.2h-5.9v19.7c0,1.3,0.3,2.2,0.8,2.9s1.4,1,2.7,1c0.6,0,1.5-0.1,2.6-0.4v4.4
	c-1.4,0.4-2.8,0.6-4.2,0.6c-2.4,0-4.2-0.7-5.5-2.2s-1.8-3.5-1.8-6.2v-19.7h-5.8v-4.2h5.8v-7.7L653.7,880.5L653.7,880.5z
	 M683.5,919.9v-27.5h-5v-4.2h5v-3.3c0-3.4,0.9-6,2.7-7.9s4.4-2.8,7.7-2.8c1.2,0,2.5,0.2,3.7,0.5l-0.3,4.4c-0.9-0.2-1.9-0.3-2.9-0.3
	c-1.8,0-3.1,0.5-4.1,1.5s-1.4,2.5-1.4,4.4v3.4h6.8v4.2h-6.8v27.5L683.5,919.9L683.5,919.9z M700.2,903.7c0-3.1,0.6-5.9,1.8-8.4
	s2.9-4.4,5.1-5.7s4.7-2,7.5-2c4.3,0,7.8,1.5,10.5,4.5s4,7,4,11.9v0.4c0,3.1-0.6,5.9-1.8,8.3s-2.9,4.4-5.1,5.7s-4.7,2.1-7.6,2.1
	c-4.3,0-7.8-1.5-10.4-4.5s-4-6.9-4-11.9V903.7z M705.6,904.4c0,3.5,0.8,6.3,2.4,8.5s3.8,3.2,6.5,3.2c2.8,0,4.9-1.1,6.6-3.2
	c1.6-2.2,2.4-5.2,2.4-9.1c0-3.5-0.8-6.3-2.5-8.5s-3.8-3.2-6.6-3.2c-2.7,0-4.8,1.1-6.5,3.2S705.6,900.4,705.6,904.4z M755.4,916.8
	c-2.1,2.5-5.2,3.7-9.3,3.7c-3.4,0-6-1-7.7-2.9s-2.7-4.9-2.7-8.7v-20.6h5.4v20.5c0,4.8,2,7.2,5.9,7.2c4.1,0,6.9-1.5,8.3-4.6v-23.1
	h5.4V920h-5.2L755.4,916.8z M774.1,888.2l0.2,4c2.4-3,5.6-4.6,9.5-4.6c6.7,0,10.1,3.8,10.1,11.3v20.9h-5.4v-21c0-2.3-0.5-4-1.6-5.1
	s-2.6-1.6-4.8-1.6c-1.8,0-3.3,0.5-4.6,1.4s-2.4,2.2-3.1,3.7v22.6H769v-31.7L774.1,888.2L774.1,888.2z M800.7,903.8
	c0-4.9,1.2-8.8,3.5-11.7c2.3-3,5.3-4.4,9.1-4.4c3.7,0,6.7,1.3,8.8,3.8V875h5.4v45h-5l-0.3-3.4c-2.2,2.7-5.2,4-9.1,4
	c-3.7,0-6.7-1.5-9-4.5s-3.5-6.9-3.5-11.8L800.7,903.8L800.7,903.8z M806.1,904.4c0,3.6,0.7,6.4,2.2,8.4s3.5,3,6.2,3
	c3.4,0,5.9-1.5,7.5-4.6v-14.6c-1.6-3-4.1-4.5-7.5-4.5c-2.7,0-4.7,1-6.2,3.1C806.9,897.3,806.1,900.4,806.1,904.4z M836,917
	c0-0.9,0.3-1.7,0.8-2.3s1.4-0.9,2.5-0.9s2,0.3,2.5,0.9s0.9,1.4,0.9,2.3c0,0.9-0.3,1.7-0.9,2.3s-1.4,0.9-2.5,0.9s-1.9-0.3-2.5-0.9
	S836,917.9,836,917z"/>
</svg>
