<?xml version="1.0" encoding="utf-8"?>
<!-- Generator: Adobe Illustrator 21.0.0, SVG Export Plug-In . SVG Version: 6.00 Build 0)  -->
<svg version="1.1" id="Layer_1" xmlns="http://www.w3.org/2000/svg" xmlns:xlink="http://www.w3.org/1999/xlink" x="0px" y="0px"
	 viewBox="0 0 2210.2 1099.6" style="enable-background:new 0 0 2210.2 1099.6;" xml:space="preserve">
<style type="text/css">
	.st0{fill:none;stroke:url(#SVGID_1_);stroke-width:10;stroke-linejoin:round;}
	.st1{fill:none;stroke:url(#SVGID_2_);stroke-width:10;stroke-linejoin:round;stroke-dasharray:20,20;}
	.st2{fill:none;stroke:url(#SVGID_3_);stroke-width:10;stroke-linejoin:round;}
	.st3{fill:none;stroke:url(#SVGID_4_);stroke-width:10;stroke-linejoin:round;stroke-dasharray:20.1813,20.1813;}
	.st4{fill:none;stroke:url(#SVGID_5_);stroke-width:10;stroke-linejoin:round;}
	.st5{fill:none;stroke:url(#SVGID_6_);stroke-width:10;stroke-linejoin:round;stroke-dasharray:20,20;}
	.st6{fill:none;stroke:url(#SVGID_7_);stroke-width:10;stroke-linejoin:round;}
	.st7{fill:none;stroke:url(#SVGID_8_);stroke-width:10;stroke-linejoin:round;stroke-dasharray:20.1813,20.1813;}
	.st8{fill:url(#SVGID_9_);}
	.st9{fill:url(#SVGID_10_);}
</style>
<g>
	<g>
		
			<linearGradient id="SVGID_1_" gradientUnits="userSpaceOnUse" x1="1099.6055" y1="-1096.5425" x2="2751.4797" y2="555.3318" gradientTransform="matrix(1 0 0 -1 0 1099.625)">
			<stop  offset="0" style="stop-color:#63E2FF"/>
			<stop  offset="1" style="stop-color:#B066FE"/>
		</linearGradient>
		<polyline class="st0" points="2205.1,1084.6 2205.1,1094.6 2195.1,1094.6 		"/>
		
			<linearGradient id="SVGID_2_" gradientUnits="userSpaceOnUse" x1="549.0877" y1="-546.0247" x2="2200.9619" y2="1105.8496" gradientTransform="matrix(1 0 0 -1 0 1099.625)">
			<stop  offset="0" style="stop-color:#63E2FF"/>
			<stop  offset="1" style="stop-color:#B066FE"/>
		</linearGradient>
		<line class="st1" x1="2175.1" y1="1094.6" x2="25.1" y2="1094.6"/>
		
			<linearGradient id="SVGID_3_" gradientUnits="userSpaceOnUse" x1="1.5893" y1="1.4769" x2="1653.4635" y2="1653.3513" gradientTransform="matrix(1 0 0 -1 0 1099.625)">
			<stop  offset="0" style="stop-color:#63E2FF"/>
			<stop  offset="1" style="stop-color:#B066FE"/>
		</linearGradient>
		<polyline class="st2" points="15.1,1094.6 5.1,1094.6 5.1,1084.6 		"/>
		
			<linearGradient id="SVGID_4_" gradientUnits="userSpaceOnUse" x1="-273.3373" y1="276.4004" x2="1378.537" y2="1928.2747" gradientTransform="matrix(1 0 0 -1 0 1099.625)">
			<stop  offset="0" style="stop-color:#63E2FF"/>
			<stop  offset="1" style="stop-color:#B066FE"/>
		</linearGradient>
		<line class="st3" x1="5.1" y1="1064.4" x2="5.1" y2="25.1"/>
		
			<linearGradient id="SVGID_5_" gradientUnits="userSpaceOnUse" x1="-541.2301" y1="544.2932" x2="1110.6442" y2="2196.1675" gradientTransform="matrix(1 0 0 -1 0 1099.625)">
			<stop  offset="0" style="stop-color:#63E2FF"/>
			<stop  offset="1" style="stop-color:#B066FE"/>
		</linearGradient>
		<polyline class="st4" points="5.1,15 5.1,5 15.1,5 		"/>
		
			<linearGradient id="SVGID_6_" gradientUnits="userSpaceOnUse" x1="9.2877" y1="-6.2246" x2="1661.162" y2="1645.6497" gradientTransform="matrix(1 0 0 -1 0 1099.625)">
			<stop  offset="0" style="stop-color:#63E2FF"/>
			<stop  offset="1" style="stop-color:#B066FE"/>
		</linearGradient>
		<line class="st5" x1="35.1" y1="5" x2="2185.1" y2="5"/>
		
			<linearGradient id="SVGID_7_" gradientUnits="userSpaceOnUse" x1="556.7877" y1="-553.7246" x2="2208.6619" y2="1098.1497" gradientTransform="matrix(1 0 0 -1 0 1099.625)">
			<stop  offset="0" style="stop-color:#63E2FF"/>
			<stop  offset="1" style="stop-color:#B066FE"/>
		</linearGradient>
		<polyline class="st6" points="2195.1,5 2205.1,5 2205.1,15 		"/>
		
			<linearGradient id="SVGID_8_" gradientUnits="userSpaceOnUse" x1="831.7128" y1="-828.6497" x2="2483.5869" y2="823.2247" gradientTransform="matrix(1 0 0 -1 0 1099.625)">
			<stop  offset="0" style="stop-color:#63E2FF"/>
			<stop  offset="1" style="stop-color:#B066FE"/>
		</linearGradient>
		<line class="st7" x1="2205.1" y1="35.2" x2="2205.1" y2="1074.5"/>
	</g>
</g>
<g>
	
		<linearGradient id="SVGID_9_" gradientUnits="userSpaceOnUse" x1="929.5499" y1="416.2875" x2="1277.7998" y2="764.5375" gradientTransform="matrix(1 0 0 -1 0 1099.625)">
		<stop  offset="0" style="stop-color:#63E2FF"/>
		<stop  offset="1" style="stop-color:#B066FE"/>
	</linearGradient>
	<path class="st8" d="M989.2,499.2c-3.8,0-7.7-1.5-10.6-4.4c-26.4-26.4-41-61.6-41-99s14.6-72.6,41-99s61.6-41,99-41
		s72.6,14.6,99,41c5.9,5.9,5.9,15.4,0,21.2c-5.9,5.9-15.4,5.9-21.2,0c-20.8-20.8-48.4-32.2-77.8-32.2s-57,11.4-77.8,32.2
		s-32.2,48.4-32.2,77.8s11.4,57,32.2,77.8c5.9,5.9,5.9,15.4,0,21.2C996.9,497.7,993.1,499.2,989.2,499.2z M1018.9,610.1
		c5.9-5.9,5.9-15.4,0-21.2c-5.9-5.9-15.4-5.9-21.2,0c-33.1,33.1-87.1,33.1-120.2,0c-16.1-16.1-24.9-37.4-24.9-60.1s8.8-44,24.9-60.1
		c5.9-5.9,5.9-15.4,0-21.2c-5.9-5.9-15.4-5.9-21.2,0c-21.7,21.7-33.7,50.6-33.7,81.3s12,59.6,33.7,81.3
		c22.4,22.4,51.9,33.6,81.3,33.6S996.5,632.5,1018.9,610.1z M1163.1,752.8v-109h85.5c77.2,0,140-62.8,140-140s-62.8-140-140-140
		c-8.3,0-15,6.7-15,15s6.7,15,15,15c60.7,0,110,49.3,110,110s-49.3,110-110,110h-100.5c-8.3,0-15,6.7-15,15v109h-37v-195
		c0-8.3-6.7-15-15-15h-18.2l52.2-76.4l47.6,69.8c4.7,6.8,14,8.6,20.8,3.9c6.8-4.7,8.6-14,3.9-20.8l-60-88c-2.8-4.1-7.4-6.5-12.4-6.5
		l0,0c-5,0-9.6,2.4-12.4,6.5l-80.7,118c-3.1,4.6-3.5,10.5-0.9,15.5s7.7,8,13.3,8h31.7v195c0,8.3,6.7,15,15,15h67
		C1156.4,767.8,1163.1,761.1,1163.1,752.8z"/>
</g>
<linearGradient id="SVGID_10_" gradientUnits="userSpaceOnUse" x1="876.7824" y1="1131.934" x2="1326.6302" y2="682.0862">
	<stop  offset="0" style="stop-color:#63E2FF"/>
	<stop  offset="1" style="stop-color:#B066FE"/>
</linearGradient>
<path class="st9" d="M689.3,907.4c-0.5,4.5-2.2,8-5,10.4c-2.8,2.5-6.5,3.7-11.2,3.7c-5,0-9.1-1.8-12.1-5.4c-3-3.6-4.6-8.4-4.6-14.5
	v-4.1c0-4,0.7-7.5,2.1-10.5c1.4-3,3.4-5.3,6-6.9c2.6-1.6,5.6-2.4,9-2.4c4.5,0,8.2,1.3,10.9,3.8c2.7,2.5,4.3,6,4.8,10.5h-5.7
	c-0.5-3.4-1.5-5.9-3.2-7.4c-1.6-1.5-3.9-2.3-6.8-2.3c-3.6,0-6.4,1.3-8.5,4c-2,2.7-3.1,6.4-3.1,11.3v4.1c0,4.6,1,8.3,2.9,11.1
	s4.6,4.1,8.1,4.1c3.1,0,5.5-0.7,7.2-2.1s2.8-3.9,3.3-7.4H689.3z M701.6,893.1c2.4-2.9,5.5-4.4,9.4-4.4c6.7,0,10.1,3.8,10.1,11.3
	v20.9h-5.4v-21c0-2.3-0.5-4-1.6-5.1s-2.6-1.6-4.8-1.6c-1.8,0-3.3,0.5-4.6,1.4c-1.3,0.9-2.4,2.2-3.1,3.7v22.6h-5.4v-45h5.4V893.1z
	 M727.8,904.8c0-3.1,0.6-5.9,1.8-8.4c1.2-2.5,2.9-4.4,5.1-5.7c2.2-1.3,4.7-2,7.5-2c4.3,0,7.8,1.5,10.5,4.5s4,7,4,11.9v0.4
	c0,3.1-0.6,5.9-1.8,8.3c-1.2,2.5-2.9,4.4-5.1,5.7s-4.7,2.1-7.6,2.1c-4.3,0-7.8-1.5-10.4-4.5s-4-6.9-4-11.9V904.8z M733.2,905.4
	c0,3.5,0.8,6.3,2.4,8.5c1.6,2.1,3.8,3.2,6.5,3.2c2.8,0,4.9-1.1,6.6-3.2c1.6-2.2,2.4-5.2,2.4-9.1c0-3.5-0.8-6.3-2.5-8.5
	c-1.7-2.2-3.8-3.2-6.6-3.2c-2.7,0-4.8,1.1-6.5,3.2S733.2,901.5,733.2,905.4z M762,904.8c0-3.1,0.6-5.9,1.8-8.4
	c1.2-2.5,2.9-4.4,5.1-5.7c2.2-1.3,4.7-2,7.5-2c4.3,0,7.8,1.5,10.5,4.5s4,7,4,11.9v0.4c0,3.1-0.6,5.9-1.8,8.3
	c-1.2,2.5-2.9,4.4-5.1,5.7s-4.7,2.1-7.6,2.1c-4.3,0-7.8-1.5-10.4-4.5s-4-6.9-4-11.9V904.8z M767.4,905.4c0,3.5,0.8,6.3,2.4,8.5
	c1.6,2.1,3.8,3.2,6.5,3.2c2.8,0,4.9-1.1,6.6-3.2c1.6-2.2,2.4-5.2,2.4-9.1c0-3.5-0.8-6.3-2.5-8.5c-1.7-2.2-3.8-3.2-6.6-3.2
	c-2.7,0-4.8,1.1-6.5,3.2S767.4,901.5,767.4,905.4z M816.1,912.5c0-1.5-0.6-2.6-1.7-3.4c-1.1-0.8-3-1.5-5.8-2.1
	c-2.7-0.6-4.9-1.3-6.5-2.1s-2.8-1.8-3.6-2.9c-0.8-1.1-1.2-2.5-1.2-4c0-2.6,1.1-4.8,3.3-6.6s5-2.7,8.4-2.7c3.6,0,6.5,0.9,8.7,2.8
	c2.2,1.9,3.4,4.2,3.4,7.1h-5.4c0-1.5-0.6-2.8-1.9-3.8s-2.8-1.6-4.8-1.6c-2,0-3.5,0.4-4.6,1.3s-1.7,2-1.7,3.4c0,1.3,0.5,2.3,1.6,3
	c1,0.7,2.9,1.3,5.6,1.9c2.7,0.6,4.9,1.3,6.6,2.2c1.7,0.8,2.9,1.9,3.7,3c0.8,1.2,1.2,2.6,1.2,4.3c0,2.8-1.1,5.1-3.4,6.8
	c-2.3,1.7-5.2,2.6-8.8,2.6c-2.5,0-4.8-0.4-6.7-1.3c-2-0.9-3.5-2.2-4.6-3.8c-1.1-1.6-1.7-3.4-1.7-5.2h5.4c0.1,1.8,0.8,3.3,2.2,4.3
	c1.4,1.1,3.1,1.6,5.4,1.6c2.1,0,3.7-0.4,4.9-1.2C815.5,915,816.1,913.9,816.1,912.5z M841.7,921.5c-4.3,0-7.8-1.4-10.5-4.2
	s-4-6.6-4-11.3v-1c0-3.1,0.6-6,1.8-8.4s2.9-4.4,5-5.8c2.2-1.4,4.5-2.1,7-2.1c4.1,0,7.3,1.4,9.6,4.1s3.4,6.6,3.4,11.7v2.3h-21.5
	c0.1,3.1,1,5.6,2.7,7.6c1.7,1.9,4,2.9,6.7,2.9c1.9,0,3.5-0.4,4.9-1.2c1.3-0.8,2.5-1.8,3.5-3.1l3.3,2.6
	C851,919.5,847,921.5,841.7,921.5z M841.1,893.1c-2.2,0-4,0.8-5.5,2.4c-1.5,1.6-2.4,3.8-2.8,6.7h15.9v-0.4c-0.2-2.8-0.9-4.9-2.2-6.4
	C845.1,893.9,843.3,893.1,841.1,893.1z M902,905.4c0,4.8-1.1,8.7-3.3,11.7c-2.2,2.9-5.2,4.4-9,4.4c-3.8,0-6.9-1.2-9.1-3.7v15.3h-5.4
	v-43.9h5l0.3,3.5c2.2-2.7,5.3-4.1,9.2-4.1c3.8,0,6.8,1.4,9,4.3c2.2,2.9,3.3,6.9,3.3,12V905.4z M896.6,904.8c0-3.6-0.8-6.4-2.3-8.5
	s-3.6-3.1-6.3-3.1c-3.3,0-5.7,1.5-7.4,4.4v15.1c1.6,2.9,4.1,4.3,7.4,4.3c2.6,0,4.7-1,6.2-3.1C895.8,912,896.6,908.9,896.6,904.8z
	 M914.3,893.1c2.4-2.9,5.5-4.4,9.4-4.4c6.7,0,10.1,3.8,10.1,11.3v20.9h-5.4v-21c0-2.3-0.5-4-1.6-5.1s-2.6-1.6-4.8-1.6
	c-1.8,0-3.3,0.5-4.6,1.4c-1.3,0.9-2.4,2.2-3.1,3.7v22.6h-5.4v-45h5.4V893.1z M940.5,904.8c0-3.1,0.6-5.9,1.8-8.4
	c1.2-2.5,2.9-4.4,5.1-5.7c2.2-1.3,4.7-2,7.5-2c4.3,0,7.8,1.5,10.5,4.5s4,7,4,11.9v0.4c0,3.1-0.6,5.9-1.8,8.3
	c-1.2,2.5-2.9,4.4-5.1,5.7s-4.7,2.1-7.6,2.1c-4.3,0-7.8-1.5-10.4-4.5s-4-6.9-4-11.9V904.8z M945.9,905.4c0,3.5,0.8,6.3,2.4,8.5
	c1.6,2.1,3.8,3.2,6.5,3.2c2.8,0,4.9-1.1,6.6-3.2c1.6-2.2,2.4-5.2,2.4-9.1c0-3.5-0.8-6.3-2.5-8.5c-1.7-2.2-3.8-3.2-6.6-3.2
	c-2.7,0-4.8,1.1-6.5,3.2S945.9,901.5,945.9,905.4z M983.5,881.6v7.7h5.9v4.2h-5.9v19.7c0,1.3,0.3,2.2,0.8,2.9s1.4,1,2.7,1
	c0.6,0,1.5-0.1,2.6-0.4v4.4c-1.4,0.4-2.8,0.6-4.2,0.6c-2.4,0-4.2-0.7-5.5-2.2s-1.8-3.5-1.8-6.2v-19.7h-5.8v-4.2h5.8v-7.7H983.5z
	 M993.7,904.8c0-3.1,0.6-5.9,1.8-8.4c1.2-2.5,2.9-4.4,5.1-5.7c2.2-1.3,4.7-2,7.5-2c4.3,0,7.8,1.5,10.5,4.5s4,7,4,11.9v0.4
	c0,3.1-0.6,5.9-1.8,8.3c-1.2,2.5-2.9,4.4-5.1,5.7s-4.7,2.1-7.6,2.1c-4.3,0-7.8-1.5-10.4-4.5s-4-6.9-4-11.9V904.8z M999.2,905.4
	c0,3.5,0.8,6.3,2.4,8.5c1.6,2.1,3.8,3.2,6.5,3.2c2.8,0,4.9-1.1,6.6-3.2c1.6-2.2,2.4-5.2,2.4-9.1c0-3.5-0.8-6.3-2.5-8.5
	c-1.7-2.2-3.8-3.2-6.6-3.2c-2.7,0-4.8,1.1-6.5,3.2S999.2,901.5,999.2,905.4z M1047.8,912.5c0-1.5-0.6-2.6-1.7-3.4
	c-1.1-0.8-3-1.5-5.8-2.1c-2.7-0.6-4.9-1.3-6.5-2.1s-2.8-1.8-3.6-2.9c-0.8-1.1-1.2-2.5-1.2-4c0-2.6,1.1-4.8,3.3-6.6s5-2.7,8.4-2.7
	c3.6,0,6.5,0.9,8.7,2.8c2.2,1.9,3.4,4.2,3.4,7.1h-5.4c0-1.5-0.6-2.8-1.9-3.8s-2.8-1.6-4.8-1.6c-2,0-3.5,0.4-4.6,1.3s-1.7,2-1.7,3.4
	c0,1.3,0.5,2.3,1.6,3c1,0.7,2.9,1.3,5.6,1.9c2.7,0.6,4.9,1.3,6.6,2.2c1.7,0.8,2.9,1.9,3.7,3c0.8,1.2,1.2,2.6,1.2,4.3
	c0,2.8-1.1,5.1-3.4,6.8c-2.3,1.7-5.2,2.6-8.8,2.6c-2.5,0-4.8-0.4-6.7-1.3c-2-0.9-3.5-2.2-4.6-3.8c-1.1-1.6-1.7-3.4-1.7-5.2h5.4
	c0.1,1.8,0.8,3.3,2.2,4.3c1.4,1.1,3.1,1.6,5.4,1.6c2.1,0,3.7-0.4,4.9-1.2C1047.2,915,1047.8,913.9,1047.8,912.5z M1073.7,904.8
	c0-3.1,0.6-5.9,1.8-8.4c1.2-2.5,2.9-4.4,5.1-5.7c2.2-1.3,4.7-2,7.5-2c4.3,0,7.8,1.5,10.5,4.5s4,7,4,11.9v0.4c0,3.1-0.6,5.9-1.8,8.3
	c-1.2,2.5-2.9,4.4-5.1,5.7s-4.7,2.1-7.6,2.1c-4.3,0-7.8-1.5-10.4-4.5s-4-6.9-4-11.9V904.8z M1079.2,905.4c0,3.5,0.8,6.3,2.4,8.5
	c1.6,2.1,3.8,3.2,6.5,3.2c2.8,0,4.9-1.1,6.6-3.2c1.6-2.2,2.4-5.2,2.4-9.1c0-3.5-0.8-6.3-2.5-8.5c-1.7-2.2-3.8-3.2-6.6-3.2
	c-2.7,0-4.8,1.1-6.5,3.2S1079.2,901.5,1079.2,905.4z M1124.7,894.1c-0.8-0.1-1.7-0.2-2.7-0.2c-3.6,0-6,1.5-7.2,4.5v22.5h-5.4v-31.7
	h5.3l0.1,3.7c1.8-2.8,4.3-4.2,7.6-4.2c1.1,0,1.9,0.1,2.4,0.4V894.1z M1143.2,904.8c0-4.9,1.2-8.8,3.5-11.7s5.3-4.4,9.1-4.4
	c3.7,0,6.7,1.3,8.8,3.8v-16.5h5.4v45h-5l-0.3-3.4c-2.2,2.7-5.2,4-9.1,4c-3.7,0-6.7-1.5-9-4.5s-3.5-6.9-3.5-11.8V904.8z
	 M1148.6,905.4c0,3.6,0.7,6.4,2.2,8.4s3.5,3,6.2,3c3.4,0,5.9-1.5,7.5-4.6v-14.6c-1.6-3-4.1-4.5-7.5-4.5c-2.7,0-4.7,1-6.2,3.1
	S1148.6,901.4,1148.6,905.4z M1193.7,894.1c-0.8-0.1-1.7-0.2-2.7-0.2c-3.6,0-6,1.5-7.2,4.5v22.5h-5.4v-31.7h5.3l0.1,3.7
	c1.8-2.8,4.3-4.2,7.6-4.2c1.1,0,1.9,0.1,2.4,0.4V894.1z M1217.1,920.9c-0.3-0.6-0.6-1.7-0.8-3.3c-2.5,2.6-5.5,3.9-9,3.9
	c-3.1,0-5.7-0.9-7.7-2.7s-3-4-3-6.7c0-3.3,1.3-5.9,3.8-7.7s6-2.7,10.6-2.7h5.3v-2.5c0-1.9-0.6-3.4-1.7-4.5s-2.8-1.7-5-1.7
	c-1.9,0-3.6,0.5-4.9,1.5s-2,2.2-2,3.5h-5.4c0-1.6,0.6-3.1,1.7-4.6s2.6-2.6,4.6-3.5s4-1.3,6.3-1.3c3.7,0,6.5,0.9,8.6,2.7
	s3.1,4.3,3.2,7.5v14.6c0,2.9,0.4,5.2,1.1,6.9v0.5H1217.1z M1208.1,916.8c1.7,0,3.3-0.4,4.8-1.3s2.6-2,3.3-3.4v-6.5h-4.2
	c-6.6,0-10,1.9-10,5.8c0,1.7,0.6,3,1.7,4S1206.3,916.8,1208.1,916.8z M1228.9,904.8c0-4.9,1.1-8.9,3.4-11.8s5.3-4.4,9.1-4.4
	c3.9,0,6.9,1.4,9.1,4.1l0.3-3.5h5v30.9c0,4.1-1.2,7.3-3.6,9.7s-5.7,3.5-9.8,3.5c-2.3,0-4.5-0.5-6.7-1.5s-3.9-2.3-5-4l2.8-3.3
	c2.3,2.9,5.2,4.3,8.5,4.3c2.6,0,4.7-0.7,6.2-2.2s2.2-3.6,2.2-6.3v-2.7c-2.2,2.5-5.1,3.8-8.9,3.8c-3.7,0-6.7-1.5-9-4.5
	S1228.9,910,1228.9,904.8z M1234.3,905.4c0,3.6,0.7,6.4,2.2,8.4s3.5,3.1,6.2,3.1c3.4,0,5.9-1.6,7.5-4.7v-14.5
	c-1.7-3-4.2-4.5-7.5-4.5c-2.6,0-4.7,1-6.2,3.1S1234.3,901.4,1234.3,905.4z M1286,881.6v7.7h5.9v4.2h-5.9v19.7c0,1.3,0.3,2.2,0.8,2.9
	s1.4,1,2.7,1c0.6,0,1.5-0.1,2.6-0.4v4.4c-1.4,0.4-2.8,0.6-4.2,0.6c-2.4,0-4.2-0.7-5.5-2.2s-1.8-3.5-1.8-6.2v-19.7h-5.8v-4.2h5.8
	v-7.7H1286z M1303.7,893.1c2.4-2.9,5.5-4.4,9.4-4.4c6.7,0,10.1,3.8,10.1,11.3v20.9h-5.4v-21c0-2.3-0.5-4-1.6-5.1s-2.6-1.6-4.8-1.6
	c-1.8,0-3.3,0.5-4.6,1.4s-2.4,2.2-3.1,3.7v22.6h-5.4v-45h5.4V893.1z M1344.5,921.5c-4.3,0-7.8-1.4-10.5-4.2s-4-6.6-4-11.3v-1
	c0-3.1,0.6-6,1.8-8.4s2.9-4.4,5-5.8s4.5-2.1,7-2.1c4.1,0,7.3,1.4,9.6,4.1s3.4,6.6,3.4,11.7v2.3h-21.5c0.1,3.1,1,5.6,2.7,7.6
	s4,2.9,6.7,2.9c1.9,0,3.5-0.4,4.9-1.2s2.5-1.8,3.5-3.1l3.3,2.6C1353.8,919.5,1349.8,921.5,1344.5,921.5z M1343.8,893.1
	c-2.2,0-4,0.8-5.5,2.4s-2.4,3.8-2.8,6.7h15.9v-0.4c-0.2-2.8-0.9-4.9-2.2-6.4S1346.1,893.1,1343.8,893.1z M1368.2,889.2l0.1,3.5
	c2.3-2.7,5.5-4.1,9.4-4.1c4.4,0,7.5,1.7,9.1,5.1c1.1-1.5,2.4-2.8,4.1-3.7s3.7-1.4,6-1.4c7,0,10.5,3.7,10.6,11v21.2h-5.4V900
	c0-2.3-0.5-4-1.6-5.1s-2.8-1.7-5.2-1.7c-2,0-3.7,0.6-5,1.8s-2.1,2.8-2.3,4.8v21h-5.4v-20.8c0-4.6-2.3-6.9-6.8-6.9
	c-3.6,0-6,1.5-7.3,4.5v23.1h-5.4v-31.7H1368.2z M1436,893.1c2.4-2.9,5.5-4.4,9.4-4.4c6.7,0,10.1,3.8,10.1,11.3v20.9h-5.4v-21
	c0-2.3-0.5-4-1.6-5.1s-2.6-1.6-4.8-1.6c-1.8,0-3.3,0.5-4.6,1.4s-2.4,2.2-3.1,3.7v22.6h-5.4v-45h5.4V893.1z M1476.7,921.5
	c-4.3,0-7.8-1.4-10.5-4.2s-4-6.6-4-11.3v-1c0-3.1,0.6-6,1.8-8.4s2.9-4.4,5-5.8s4.5-2.1,7-2.1c4.1,0,7.3,1.4,9.6,4.1
	s3.4,6.6,3.4,11.7v2.3h-21.5c0.1,3.1,1,5.6,2.7,7.6s4,2.9,6.7,2.9c1.9,0,3.5-0.4,4.9-1.2s2.5-1.8,3.5-3.1l3.3,2.6
	C1486,919.5,1482.1,921.5,1476.7,921.5z M1476.1,893.1c-2.2,0-4,0.8-5.5,2.4s-2.4,3.8-2.8,6.7h15.9v-0.4c-0.2-2.8-0.9-4.9-2.2-6.4
	S1478.3,893.1,1476.1,893.1z M1510.7,894.1c-0.8-0.1-1.7-0.2-2.7-0.2c-3.6,0-6,1.5-7.2,4.5v22.5h-5.4v-31.7h5.3l0.1,3.7
	c1.8-2.8,4.3-4.2,7.6-4.2c1.1,0,1.9,0.1,2.4,0.4V894.1z M1528.3,921.5c-4.3,0-7.8-1.4-10.5-4.2s-4-6.6-4-11.3v-1
	c0-3.1,0.6-6,1.8-8.4s2.9-4.4,5-5.8s4.5-2.1,7-2.1c4.1,0,7.3,1.4,9.6,4.1s3.4,6.6,3.4,11.7v2.3h-21.5c0.1,3.1,1,5.6,2.7,7.6
	s4,2.9,6.7,2.9c1.9,0,3.5-0.4,4.9-1.2s2.5-1.8,3.5-3.1l3.3,2.6C1537.6,919.5,1533.6,921.5,1528.3,921.5z M1527.6,893.1
	c-2.2,0-4,0.8-5.5,2.4s-2.4,3.8-2.8,6.7h15.9v-0.4c-0.2-2.8-0.9-4.9-2.2-6.4S1529.9,893.1,1527.6,893.1z M1547,918.1
	c0-0.9,0.3-1.7,0.8-2.3s1.4-0.9,2.5-0.9s2,0.3,2.5,0.9s0.9,1.4,0.9,2.3c0,0.9-0.3,1.7-0.9,2.3s-1.4,0.9-2.5,0.9s-1.9-0.3-2.5-0.9
	S1547,919,1547,918.1z"/>
</svg>
