<?xml version="1.0" encoding="utf-8"?>
<!-- Generator: Adobe Illustrator 21.0.0, SVG Export Plug-In . SVG Version: 6.00 Build 0)  -->
<svg version="1.1" id="Layer_1" xmlns="http://www.w3.org/2000/svg" xmlns:xlink="http://www.w3.org/1999/xlink" x="0px" y="0px"
	 viewBox="0 0 2010 1000" style="enable-background:new 0 0 2010 1000;" xml:space="preserve">
<style type="text/css">
	.st0{fill:none;stroke:url(#SVGID_1_);stroke-width:10;stroke-linejoin:round;}
	.st1{fill:none;stroke:url(#SVGID_2_);stroke-width:10;stroke-linejoin:round;stroke-dasharray:20,20;}
	.st2{fill:none;stroke:url(#SVGID_3_);stroke-width:10;stroke-linejoin:round;}
	.st3{fill:none;stroke:url(#SVGID_4_);stroke-width:10;stroke-linejoin:round;stroke-dasharray:20.1813,20.1813;}
	.st4{fill:none;stroke:url(#SVGID_5_);stroke-width:10;stroke-linejoin:round;}
	.st5{fill:none;stroke:url(#SVGID_6_);stroke-width:10;stroke-linejoin:round;stroke-dasharray:20,20;}
	.st6{fill:none;stroke:url(#SVGID_7_);stroke-width:10;stroke-linejoin:round;}
	.st7{fill:none;stroke:url(#SVGID_8_);stroke-width:10;stroke-linejoin:round;stroke-dasharray:20.1813,20.1813;}
	.st8{fill:url(#SVGID_9_);}
	.st9{fill:url(#SVGID_10_);}
</style>
<g>
	<g>
		
			<linearGradient id="SVGID_1_" gradientUnits="userSpaceOnUse" x1="966.2347" y1="1929.265" x2="2516.894" y2="378.6057" gradientTransform="matrix(1 0 0 1 0 99.625)">
			<stop  offset="0" style="stop-color:#63E2FF"/>
			<stop  offset="1" style="stop-color:#B066FE"/>
		</linearGradient>
		<polyline class="st0" points="2003.9,985.6 2003.9,994.7 1994.8,994.7 		"/>
		
			<linearGradient id="SVGID_2_" gradientUnits="userSpaceOnUse" x1="499.8407" y1="1395.7235" x2="2000.5955" y2="-105.0312" gradientTransform="matrix(1 0 0 1 0 99.625)">
			<stop  offset="0" style="stop-color:#63E2FF"/>
			<stop  offset="1" style="stop-color:#B066FE"/>
		</linearGradient>
		<line class="st1" x1="1976.7" y1="994.7" x2="24.3" y2="994.7"/>
		
			<linearGradient id="SVGID_3_" gradientUnits="userSpaceOnUse" x1="2.5664" y1="898.6384" x2="1585.6526" y2="-684.448" gradientTransform="matrix(1 0 0 1 0 99.625)">
			<stop  offset="0" style="stop-color:#63E2FF"/>
			<stop  offset="1" style="stop-color:#B066FE"/>
		</linearGradient>
		<polyline class="st2" points="15.2,994.7 6.1,994.7 6.1,985.6 		"/>
		
			<linearGradient id="SVGID_4_" gradientUnits="userSpaceOnUse" x1="-247.0053" y1="648.8964" x2="1254.4935" y2="-852.6024" gradientTransform="matrix(1 0 0 1 0 99.625)">
			<stop  offset="0" style="stop-color:#63E2FF"/>
			<stop  offset="1" style="stop-color:#B066FE"/>
		</linearGradient>
		<line class="st3" x1="6.1" y1="967.3" x2="6.1" y2="23.5"/>
		
			<linearGradient id="SVGID_5_" gradientUnits="userSpaceOnUse" x1="-506.8788" y1="422.1328" x2="1043.7805" y2="-1128.5266" gradientTransform="matrix(1 0 0 1 0 99.625)">
			<stop  offset="0" style="stop-color:#63E2FF"/>
			<stop  offset="1" style="stop-color:#B066FE"/>
		</linearGradient>
		<polyline class="st4" points="6.1,14.4 6.1,5.3 15.2,5.3 		"/>
		
			<linearGradient id="SVGID_6_" gradientUnits="userSpaceOnUse" x1="9.4194" y1="905.77" x2="1510.1742" y2="-594.9847" gradientTransform="matrix(1 0 0 1 0 99.625)">
			<stop  offset="0" style="stop-color:#63E2FF"/>
			<stop  offset="1" style="stop-color:#B066FE"/>
		</linearGradient>
		<line class="st5" x1="33.3" y1="5.3" x2="1985.7" y2="5.3"/>
		
			<linearGradient id="SVGID_7_" gradientUnits="userSpaceOnUse" x1="424.3586" y1="1485.1906" x2="2007.4448" y2="-97.8958" gradientTransform="matrix(1 0 0 1 0 99.625)">
			<stop  offset="0" style="stop-color:#63E2FF"/>
			<stop  offset="1" style="stop-color:#B066FE"/>
		</linearGradient>
		<polyline class="st6" points="1994.8,5.3 2003.9,5.3 2003.9,14.4 		"/>
		
			<linearGradient id="SVGID_8_" gradientUnits="userSpaceOnUse" x1="755.5217" y1="1653.3414" x2="2257.0203" y2="151.8424" gradientTransform="matrix(1 0 0 1 0 99.625)">
			<stop  offset="0" style="stop-color:#63E2FF"/>
			<stop  offset="1" style="stop-color:#B066FE"/>
		</linearGradient>
		<line class="st7" x1="2003.9" y1="32.7" x2="2003.9" y2="976.5"/>
	</g>
</g>
<g>
	
		<linearGradient id="SVGID_9_" gradientUnits="userSpaceOnUse" x1="829.4269" y1="493.7359" x2="1177.6768" y2="145.4859" gradientTransform="matrix(1 0 0 1 0 99.625)">
		<stop  offset="0" style="stop-color:#63E2FF"/>
		<stop  offset="1" style="stop-color:#B066FE"/>
	</linearGradient>
	<path class="st8" d="M889.1,409.2c-3.8,0-7.7-1.5-10.6-4.4c-26.4-26.4-41-61.6-41-99s14.6-72.6,41-99s61.6-41,99-41
		s72.6,14.6,99,41c5.9,5.9,5.9,15.4,0,21.2c-5.9,5.9-15.4,5.9-21.2,0c-20.8-20.8-48.4-32.2-77.8-32.2s-57,11.4-77.8,32.2
		s-32.2,48.4-32.2,77.8s11.4,57,32.2,77.8c5.9,5.9,5.9,15.4,0,21.2C896.8,407.7,893,409.2,889.1,409.2z M918.8,520.1
		c5.9-5.9,5.9-15.4,0-21.2c-5.9-5.9-15.4-5.9-21.2,0c-33.1,33.1-87.1,33.1-120.2,0c-16.1-16.1-24.9-37.4-24.9-60.1s8.8-44,24.9-60.1
		c5.9-5.9,5.9-15.4,0-21.2c-5.9-5.9-15.4-5.9-21.2,0c-21.7,21.7-33.7,50.6-33.7,81.3s12,59.6,33.7,81.3
		c22.4,22.4,51.9,33.6,81.3,33.6S896.4,542.5,918.8,520.1z M1063,662.8v-109h85.5c77.2,0,140-62.8,140-140s-62.8-140-140-140
		c-8.3,0-15,6.7-15,15s6.7,15,15,15c60.7,0,110,49.3,110,110s-49.3,110-110,110H1048c-8.3,0-15,6.7-15,15v109h-37v-195
		c0-8.3-6.7-15-15-15h-18.2l52.2-76.4l47.6,69.8c4.7,6.8,14,8.6,20.8,3.9c6.8-4.7,8.6-14,3.9-20.8l-60-88c-2.8-4.1-7.4-6.5-12.4-6.5
		l0,0c-5,0-9.6,2.4-12.4,6.5l-80.7,118c-3.1,4.6-3.5,10.5-0.9,15.5s7.7,8,13.3,8h31.7v195c0,8.3,6.7,15,15,15h67
		C1056.3,677.8,1063,671.1,1063,662.8z"/>
</g>
<linearGradient id="SVGID_10_" gradientUnits="userSpaceOnUse" x1="776.6109" y1="-41.5383" x2="1226.4349" y2="408.2856" gradientTransform="matrix(1 0 0 -1 0 1000.4)">
	<stop  offset="0" style="stop-color:#63E2FF"/>
	<stop  offset="1" style="stop-color:#B066FE"/>
</linearGradient>
<path class="st9" d="M589.2,817.4c-0.5,4.5-2.2,8-5,10.4c-2.8,2.5-6.5,3.7-11.2,3.7c-5,0-9.1-1.8-12.1-5.4c-3-3.6-4.6-8.4-4.6-14.5
	v-4.1c0-4,0.7-7.5,2.1-10.5c1.4-3,3.4-5.3,6-6.9c2.6-1.6,5.6-2.4,9-2.4c4.5,0,8.2,1.3,10.9,3.8s4.3,6,4.8,10.5h-5.7
	c-0.5-3.4-1.5-5.9-3.2-7.4c-1.6-1.5-3.9-2.3-6.8-2.3c-3.6,0-6.4,1.3-8.5,4c-2,2.7-3.1,6.4-3.1,11.3v4.1c0,4.6,1,8.3,2.9,11.1
	s4.6,4.1,8.1,4.1c3.1,0,5.5-0.7,7.2-2.1s2.8-3.9,3.3-7.4L589.2,817.4L589.2,817.4z M601.5,803.1c2.4-2.9,5.5-4.4,9.4-4.4
	c6.7,0,10.1,3.8,10.1,11.3v20.9h-5.4v-21c0-2.3-0.5-4-1.6-5.1s-2.6-1.6-4.8-1.6c-1.8,0-3.3,0.5-4.6,1.4s-2.4,2.2-3.1,3.7v22.6h-5.4
	v-45h5.4L601.5,803.1L601.5,803.1z M627.7,814.8c0-3.1,0.6-5.9,1.8-8.4s2.9-4.4,5.1-5.7c2.2-1.3,4.7-2,7.5-2c4.3,0,7.8,1.5,10.5,4.5
	s4,7,4,11.9v0.4c0,3.1-0.6,5.9-1.8,8.3c-1.2,2.5-2.9,4.4-5.1,5.7s-4.7,2.1-7.6,2.1c-4.3,0-7.8-1.5-10.4-4.5s-4-6.9-4-11.9V814.8z
	 M633.1,815.4c0,3.5,0.8,6.3,2.4,8.5c1.6,2.1,3.8,3.2,6.5,3.2c2.8,0,4.9-1.1,6.6-3.2c1.6-2.2,2.4-5.2,2.4-9.1c0-3.5-0.8-6.3-2.5-8.5
	s-3.8-3.2-6.6-3.2c-2.7,0-4.8,1.1-6.5,3.2S633.1,811.5,633.1,815.4z M661.9,814.8c0-3.1,0.6-5.9,1.8-8.4s2.9-4.4,5.1-5.7
	c2.2-1.3,4.7-2,7.5-2c4.3,0,7.8,1.5,10.5,4.5s4,7,4,11.9v0.4c0,3.1-0.6,5.9-1.8,8.3c-1.2,2.5-2.9,4.4-5.1,5.7s-4.7,2.1-7.6,2.1
	c-4.3,0-7.8-1.5-10.4-4.5s-4-6.9-4-11.9V814.8z M667.3,815.4c0,3.5,0.8,6.3,2.4,8.5c1.6,2.1,3.8,3.2,6.5,3.2c2.8,0,4.9-1.1,6.6-3.2
	c1.6-2.2,2.4-5.2,2.4-9.1c0-3.5-0.8-6.3-2.5-8.5s-3.8-3.2-6.6-3.2c-2.7,0-4.8,1.1-6.5,3.2S667.3,811.5,667.3,815.4z M716,822.5
	c0-1.5-0.6-2.6-1.7-3.4c-1.1-0.8-3-1.5-5.8-2.1c-2.7-0.6-4.9-1.3-6.5-2.1s-2.8-1.8-3.6-2.9c-0.8-1.1-1.2-2.5-1.2-4
	c0-2.6,1.1-4.8,3.3-6.6s5-2.7,8.4-2.7c3.6,0,6.5,0.9,8.7,2.8c2.2,1.9,3.4,4.2,3.4,7.1h-5.4c0-1.5-0.6-2.8-1.9-3.8s-2.8-1.6-4.8-1.6
	s-3.5,0.4-4.6,1.3s-1.7,2-1.7,3.4c0,1.3,0.5,2.3,1.6,3c1,0.7,2.9,1.3,5.6,1.9c2.7,0.6,4.9,1.3,6.6,2.2c1.7,0.8,2.9,1.9,3.7,3
	c0.8,1.2,1.2,2.6,1.2,4.3c0,2.8-1.1,5.1-3.4,6.8c-2.3,1.7-5.2,2.6-8.8,2.6c-2.5,0-4.8-0.4-6.7-1.3c-2-0.9-3.5-2.2-4.6-3.8
	s-1.7-3.4-1.7-5.2h5.4c0.1,1.8,0.8,3.3,2.2,4.3c1.4,1.1,3.1,1.6,5.4,1.6c2.1,0,3.7-0.4,4.9-1.2C715.4,825,716,823.9,716,822.5z
	 M741.6,831.5c-4.3,0-7.8-1.4-10.5-4.2s-4-6.6-4-11.3v-1c0-3.1,0.6-6,1.8-8.4s2.9-4.4,5-5.8c2.2-1.4,4.5-2.1,7-2.1
	c4.1,0,7.3,1.4,9.6,4.1s3.4,6.6,3.4,11.7v2.3h-21.5c0.1,3.1,1,5.6,2.7,7.6c1.7,1.9,4,2.9,6.7,2.9c1.9,0,3.5-0.4,4.9-1.2
	c1.3-0.8,2.5-1.8,3.5-3.1l3.3,2.6C750.9,829.5,746.9,831.5,741.6,831.5z M741,803.1c-2.2,0-4,0.8-5.5,2.4c-1.5,1.6-2.4,3.8-2.8,6.7
	h15.9v-0.4c-0.2-2.8-0.9-4.9-2.2-6.4C745,803.9,743.2,803.1,741,803.1z M801.9,815.4c0,4.8-1.1,8.7-3.3,11.7c-2.2,2.9-5.2,4.4-9,4.4
	s-6.9-1.2-9.1-3.7v15.3h-5.4v-43.9h5l0.3,3.5c2.2-2.7,5.3-4.1,9.2-4.1c3.8,0,6.8,1.4,9,4.3c2.2,2.9,3.3,6.9,3.3,12V815.4z
	 M796.5,814.8c0-3.6-0.8-6.4-2.3-8.5s-3.6-3.1-6.3-3.1c-3.3,0-5.7,1.5-7.4,4.4v15.1c1.6,2.9,4.1,4.3,7.4,4.3c2.6,0,4.7-1,6.2-3.1
	C795.7,822,796.5,818.9,796.5,814.8z M814.2,803.1c2.4-2.9,5.5-4.4,9.4-4.4c6.7,0,10.1,3.8,10.1,11.3v20.9h-5.4v-21
	c0-2.3-0.5-4-1.6-5.1s-2.6-1.6-4.8-1.6c-1.8,0-3.3,0.5-4.6,1.4s-2.4,2.2-3.1,3.7v22.6h-5.4v-45h5.4L814.2,803.1L814.2,803.1z
	 M840.4,814.8c0-3.1,0.6-5.9,1.8-8.4s2.9-4.4,5.1-5.7c2.2-1.3,4.7-2,7.5-2c4.3,0,7.8,1.5,10.5,4.5s4,7,4,11.9v0.4
	c0,3.1-0.6,5.9-1.8,8.3c-1.2,2.5-2.9,4.4-5.1,5.7s-4.7,2.1-7.6,2.1c-4.3,0-7.8-1.5-10.4-4.5s-4-6.9-4-11.9V814.8z M845.8,815.4
	c0,3.5,0.8,6.3,2.4,8.5c1.6,2.1,3.8,3.2,6.5,3.2c2.8,0,4.9-1.1,6.6-3.2c1.6-2.2,2.4-5.2,2.4-9.1c0-3.5-0.8-6.3-2.5-8.5
	s-3.8-3.2-6.6-3.2c-2.7,0-4.8,1.1-6.5,3.2S845.8,811.5,845.8,815.4z M883.4,791.6v7.7h5.9v4.2h-5.9v19.7c0,1.3,0.3,2.2,0.8,2.9
	s1.4,1,2.7,1c0.6,0,1.5-0.1,2.6-0.4v4.4c-1.4,0.4-2.8,0.6-4.2,0.6c-2.4,0-4.2-0.7-5.5-2.2s-1.8-3.5-1.8-6.2v-19.7h-5.8v-4.2h5.8
	v-7.7L883.4,791.6L883.4,791.6z M893.6,814.8c0-3.1,0.6-5.9,1.8-8.4s2.9-4.4,5.1-5.7c2.2-1.3,4.7-2,7.5-2c4.3,0,7.8,1.5,10.5,4.5
	s4,7,4,11.9v0.4c0,3.1-0.6,5.9-1.8,8.3c-1.2,2.5-2.9,4.4-5.1,5.7s-4.7,2.1-7.6,2.1c-4.3,0-7.8-1.5-10.4-4.5s-4-6.9-4-11.9V814.8z
	 M899.1,815.4c0,3.5,0.8,6.3,2.4,8.5c1.6,2.1,3.8,3.2,6.5,3.2c2.8,0,4.9-1.1,6.6-3.2c1.6-2.2,2.4-5.2,2.4-9.1c0-3.5-0.8-6.3-2.5-8.5
	s-3.8-3.2-6.6-3.2c-2.7,0-4.8,1.1-6.5,3.2S899.1,811.5,899.1,815.4z M947.7,822.5c0-1.5-0.6-2.6-1.7-3.4c-1.1-0.8-3-1.5-5.8-2.1
	c-2.7-0.6-4.9-1.3-6.5-2.1s-2.8-1.8-3.6-2.9c-0.8-1.1-1.2-2.5-1.2-4c0-2.6,1.1-4.8,3.3-6.6s5-2.7,8.4-2.7c3.6,0,6.5,0.9,8.7,2.8
	c2.2,1.9,3.4,4.2,3.4,7.1h-5.4c0-1.5-0.6-2.8-1.9-3.8s-2.8-1.6-4.8-1.6s-3.5,0.4-4.6,1.3s-1.7,2-1.7,3.4c0,1.3,0.5,2.3,1.6,3
	c1,0.7,2.9,1.3,5.6,1.9c2.7,0.6,4.9,1.3,6.6,2.2c1.7,0.8,2.9,1.9,3.7,3c0.8,1.2,1.2,2.6,1.2,4.3c0,2.8-1.1,5.1-3.4,6.8
	s-5.2,2.6-8.8,2.6c-2.5,0-4.8-0.4-6.7-1.3c-2-0.9-3.5-2.2-4.6-3.8s-1.7-3.4-1.7-5.2h5.4c0.1,1.8,0.8,3.3,2.2,4.3
	c1.4,1.1,3.1,1.6,5.4,1.6c2.1,0,3.7-0.4,4.9-1.2C947.1,825,947.7,823.9,947.7,822.5z M973.6,814.8c0-3.1,0.6-5.9,1.8-8.4
	c1.2-2.5,2.9-4.4,5.1-5.7s4.7-2,7.5-2c4.3,0,7.8,1.5,10.5,4.5s4,7,4,11.9v0.4c0,3.1-0.6,5.9-1.8,8.3c-1.2,2.5-2.9,4.4-5.1,5.7
	s-4.7,2.1-7.6,2.1c-4.3,0-7.8-1.5-10.4-4.5s-4-6.9-4-11.9V814.8z M979.1,815.4c0,3.5,0.8,6.3,2.4,8.5c1.6,2.1,3.8,3.2,6.5,3.2
	c2.8,0,4.9-1.1,6.6-3.2c1.6-2.2,2.4-5.2,2.4-9.1c0-3.5-0.8-6.3-2.5-8.5s-3.8-3.2-6.6-3.2c-2.7,0-4.8,1.1-6.5,3.2
	S979.1,811.5,979.1,815.4z M1024.6,804.1c-0.8-0.1-1.7-0.2-2.7-0.2c-3.6,0-6,1.5-7.2,4.5v22.5h-5.4v-31.7h5.3l0.1,3.7
	c1.8-2.8,4.3-4.2,7.6-4.2c1.1,0,1.9,0.1,2.4,0.4v5H1024.6z M1043.1,814.8c0-4.9,1.2-8.8,3.5-11.7s5.3-4.4,9.1-4.4
	c3.7,0,6.7,1.3,8.8,3.8V786h5.4v45h-5l-0.3-3.4c-2.2,2.7-5.2,4-9.1,4c-3.7,0-6.7-1.5-9-4.5s-3.5-6.9-3.5-11.8L1043.1,814.8
	L1043.1,814.8z M1048.5,815.4c0,3.6,0.7,6.4,2.2,8.4s3.5,3,6.2,3c3.4,0,5.9-1.5,7.5-4.6v-14.6c-1.6-3-4.1-4.5-7.5-4.5
	c-2.7,0-4.7,1-6.2,3.1S1048.5,811.4,1048.5,815.4z M1093.6,804.1c-0.8-0.1-1.7-0.2-2.7-0.2c-3.6,0-6,1.5-7.2,4.5v22.5h-5.4v-31.7
	h5.3l0.1,3.7c1.8-2.8,4.3-4.2,7.6-4.2c1.1,0,1.9,0.1,2.4,0.4v5H1093.6z M1117,830.9c-0.3-0.6-0.6-1.7-0.8-3.3
	c-2.5,2.6-5.5,3.9-9,3.9c-3.1,0-5.7-0.9-7.7-2.7s-3-4-3-6.7c0-3.3,1.3-5.9,3.8-7.7s6-2.7,10.6-2.7h5.3v-2.5c0-1.9-0.6-3.4-1.7-4.5
	s-2.8-1.7-5-1.7c-1.9,0-3.6,0.5-4.9,1.5s-2,2.2-2,3.5h-5.4c0-1.6,0.6-3.1,1.7-4.6s2.6-2.6,4.6-3.5s4-1.3,6.3-1.3
	c3.7,0,6.5,0.9,8.6,2.7s3.1,4.3,3.2,7.5v14.6c0,2.9,0.4,5.2,1.1,6.9v0.5L1117,830.9L1117,830.9z M1108,826.8c1.7,0,3.3-0.4,4.8-1.3
	s2.6-2,3.3-3.4v-6.5h-4.2c-6.6,0-10,1.9-10,5.8c0,1.7,0.6,3,1.7,4S1106.2,826.8,1108,826.8z M1128.8,814.8c0-4.9,1.1-8.9,3.4-11.8
	s5.3-4.4,9.1-4.4c3.9,0,6.9,1.4,9.1,4.1l0.3-3.5h5v30.9c0,4.1-1.2,7.3-3.6,9.7s-5.7,3.5-9.8,3.5c-2.3,0-4.5-0.5-6.7-1.5
	s-3.9-2.3-5-4l2.8-3.3c2.3,2.9,5.2,4.3,8.5,4.3c2.6,0,4.7-0.7,6.2-2.2s2.2-3.6,2.2-6.3v-2.7c-2.2,2.5-5.1,3.8-8.9,3.8
	c-3.7,0-6.7-1.5-9-4.5S1128.8,820,1128.8,814.8z M1134.2,815.4c0,3.6,0.7,6.4,2.2,8.4s3.5,3.1,6.2,3.1c3.4,0,5.9-1.6,7.5-4.7v-14.5
	c-1.7-3-4.2-4.5-7.5-4.5c-2.6,0-4.7,1-6.2,3.1S1134.2,811.4,1134.2,815.4z M1185.9,791.6v7.7h5.9v4.2h-5.9v19.7
	c0,1.3,0.3,2.2,0.8,2.9s1.4,1,2.7,1c0.6,0,1.5-0.1,2.6-0.4v4.4c-1.4,0.4-2.8,0.6-4.2,0.6c-2.4,0-4.2-0.7-5.5-2.2s-1.8-3.5-1.8-6.2
	v-19.7h-5.8v-4.2h5.8v-7.7L1185.9,791.6L1185.9,791.6z M1203.6,803.1c2.4-2.9,5.5-4.4,9.4-4.4c6.7,0,10.1,3.8,10.1,11.3v20.9h-5.4
	v-21c0-2.3-0.5-4-1.6-5.1s-2.6-1.6-4.8-1.6c-1.8,0-3.3,0.5-4.6,1.4s-2.4,2.2-3.1,3.7v22.6h-5.4v-45h5.4V803.1z M1244.4,831.5
	c-4.3,0-7.8-1.4-10.5-4.2s-4-6.6-4-11.3v-1c0-3.1,0.6-6,1.8-8.4s2.9-4.4,5-5.8s4.5-2.1,7-2.1c4.1,0,7.3,1.4,9.6,4.1
	s3.4,6.6,3.4,11.7v2.3h-21.5c0.1,3.1,1,5.6,2.7,7.6s4,2.9,6.7,2.9c1.9,0,3.5-0.4,4.9-1.2s2.5-1.8,3.5-3.1l3.3,2.6
	C1253.7,829.5,1249.7,831.5,1244.4,831.5z M1243.7,803.1c-2.2,0-4,0.8-5.5,2.4s-2.4,3.8-2.8,6.7h15.9v-0.4c-0.2-2.8-0.9-4.9-2.2-6.4
	S1246,803.1,1243.7,803.1z M1268.1,799.2l0.1,3.5c2.3-2.7,5.5-4.1,9.4-4.1c4.4,0,7.5,1.7,9.1,5.1c1.1-1.5,2.4-2.8,4.1-3.7
	s3.7-1.4,6-1.4c7,0,10.5,3.7,10.6,11v21.2h-5.4V810c0-2.3-0.5-4-1.6-5.1s-2.8-1.7-5.2-1.7c-2,0-3.7,0.6-5,1.8s-2.1,2.8-2.3,4.8v21
	h-5.4V810c0-4.6-2.3-6.9-6.8-6.9c-3.6,0-6,1.5-7.3,4.5v23.1h-5.4V799h5.1V799.2z M1335.9,803.1c2.4-2.9,5.5-4.4,9.4-4.4
	c6.7,0,10.1,3.8,10.1,11.3v20.9h-5.4v-21c0-2.3-0.5-4-1.6-5.1s-2.6-1.6-4.8-1.6c-1.8,0-3.3,0.5-4.6,1.4s-2.4,2.2-3.1,3.7v22.6h-5.4
	v-45h5.4V803.1z M1376.6,831.5c-4.3,0-7.8-1.4-10.5-4.2s-4-6.6-4-11.3v-1c0-3.1,0.6-6,1.8-8.4s2.9-4.4,5-5.8s4.5-2.1,7-2.1
	c4.1,0,7.3,1.4,9.6,4.1s3.4,6.6,3.4,11.7v2.3h-21.5c0.1,3.1,1,5.6,2.7,7.6s4,2.9,6.7,2.9c1.9,0,3.5-0.4,4.9-1.2s2.5-1.8,3.5-3.1
	l3.3,2.6C1385.9,829.5,1382,831.5,1376.6,831.5z M1376,803.1c-2.2,0-4,0.8-5.5,2.4s-2.4,3.8-2.8,6.7h15.9v-0.4
	c-0.2-2.8-0.9-4.9-2.2-6.4S1378.2,803.1,1376,803.1z M1410.6,804.1c-0.8-0.1-1.7-0.2-2.7-0.2c-3.6,0-6,1.5-7.2,4.5v22.5h-5.4v-31.7
	h5.3l0.1,3.7c1.8-2.8,4.3-4.2,7.6-4.2c1.1,0,1.9,0.1,2.4,0.4v5H1410.6z M1428.2,831.5c-4.3,0-7.8-1.4-10.5-4.2s-4-6.6-4-11.3v-1
	c0-3.1,0.6-6,1.8-8.4s2.9-4.4,5-5.8s4.5-2.1,7-2.1c4.1,0,7.3,1.4,9.6,4.1s3.4,6.6,3.4,11.7v2.3H1419c0.1,3.1,1,5.6,2.7,7.6
	s4,2.9,6.7,2.9c1.9,0,3.5-0.4,4.9-1.2s2.5-1.8,3.5-3.1l3.3,2.6C1437.5,829.5,1433.5,831.5,1428.2,831.5z M1427.5,803.1
	c-2.2,0-4,0.8-5.5,2.4s-2.4,3.8-2.8,6.7h15.9v-0.4c-0.2-2.8-0.9-4.9-2.2-6.4S1429.8,803.1,1427.5,803.1z M1446.9,828.1
	c0-0.9,0.3-1.7,0.8-2.3s1.4-0.9,2.5-0.9s2,0.3,2.5,0.9s0.9,1.4,0.9,2.3c0,0.9-0.3,1.7-0.9,2.3s-1.4,0.9-2.5,0.9s-1.9-0.3-2.5-0.9
	S1446.9,829,1446.9,828.1z"/>
</svg>
