<?xml version="1.0" encoding="utf-8"?>
<!-- Generator: Adobe Illustrator 21.0.0, SVG Export Plug-In . SVG Version: 6.00 Build 0)  -->
<svg version="1.1" id="Layer_1" xmlns="http://www.w3.org/2000/svg" xmlns:xlink="http://www.w3.org/1999/xlink" x="0px" y="0px"
	 viewBox="0 0 1100 1100" style="enable-background:new 0 0 1100 1100;" xml:space="preserve">
<style type="text/css">
	.st0{fill:url(#SVGID_1_);}
	.st1{fill:url(#SVGID_2_);}
</style>
<linearGradient id="SVGID_1_" gradientUnits="userSpaceOnUse" x1="196.4466" y1="903.5534" x2="903.5534" y2="196.4466">
	<stop  offset="0" style="stop-color:#63E2FF"/>
	<stop  offset="1" style="stop-color:#B066FE"/>
</linearGradient>
<path class="st0" d="M550,80c63.5,0,125,12.4,182.9,36.9c56,23.7,106.2,57.6,149.4,100.7s77.1,93.4,100.7,149.4
	C1007.6,425,1020,486.5,1020,550s-12.4,125-36.9,182.9c-23.7,56-57.6,106.2-100.7,149.4s-93.4,77.1-149.4,100.7
	C675,1007.6,613.5,1020,550,1020s-125-12.4-182.9-36.9c-56-23.7-106.2-57.6-149.4-100.7s-77.1-93.4-100.7-149.4
	C92.4,675,80,613.5,80,550s12.4-125,36.9-182.9c23.7-56,57.6-106.2,100.7-149.4s93.4-77.1,149.4-100.7C425,92.4,486.5,80,550,80
	 M550,50C273.9,50,50,273.9,50,550s223.9,500,500,500s500-223.9,500-500S826.1,50,550,50L550,50z"/>
<linearGradient id="SVGID_2_" gradientUnits="userSpaceOnUse" x1="237.4055" y1="862.6788" x2="862.5287" y2="237.5556">
	<stop  offset="0" style="stop-color:#63E2FF"/>
	<stop  offset="1" style="stop-color:#B066FE"/>
</linearGradient>
<path class="st1" d="M964.1,395.5H669.6l72.5,125.6c0.5,0.7,1,1.4,1.4,2.1l11.8,20.3c0.1,0.4,0.3,0.7,0.4,1.1l152.8,264.1
	c55.7-77,83.5-167.9,83.5-258.8C991.9,497.5,982.7,445.3,964.1,395.5z M862.3,237.4c-67.6-67.6-151.6-108.5-239.1-123.1L475.8,369.1
	h145.3c0.7-0.1,1.4-0.1,2.1,0h23.6c0.5,0,1,0,1.4,0h305.2C932,321.4,901.5,276.5,862.3,237.4z M890.9,831.3l-147-254.8l-72.1,124.2
	c-0.2,0.5-0.4,1-0.7,1.4l-0.4,1.1c-0.1,0.4-0.2,0.7-0.4,1.1L505.4,989.7c127.4,12.9,259.2-29.4,356.9-127.1
	C872.5,852.6,882,842.1,890.9,831.3L890.9,831.3z M478.7,731c-0.6,0-1.2,0-1.8,0H453c-0.5,0-1,0-1.4,0H146.8
	c21.4,47.7,51.4,92.5,90.7,131.7c67.8,67.8,152,108.9,239.8,123.5l147-255.2H478.7z M595.4,110.3c-127.7-13.1-260,29.4-358,127.4
	c-10.1,10.1-19.3,20.7-28.2,31.4l147,254.5L428,399.4c0.4-0.8,0.9-1.5,1.4-2.1l12.1-21.4c0.2-0.4,0.5-0.7,0.7-1.1
	c0.3-0.4,0.7-0.7,1.1-1.1L595.4,110.3L595.4,110.3z M430.1,704.9l-72.5-126c-0.4-0.5-0.7-0.9-1.1-1.4l-11.8-20.7
	c-0.3-0.3-0.5-0.7-0.7-1.1L191.7,291.6c-88,121.5-106.5,277.3-55.7,413.3L430.1,704.9L430.1,704.9z"/>
</svg>
